<svg viewBox="0 0 24 24" xmlns="http://www.w3.org/2000/svg"><path d="m2.6 21.4c-.9-.7-1.4-1.9-1.3-3 .2-1.6 1.5-3.3 2.9-3.9 5.8-2.6 8.3 10.9.5 8.1-.5-.2-.8-.4-1.3-.5-.4-.2-.6-.4-.9-.6z"/><path d="m22.1 20.3c-.4.8-1.2 1.3-2.1 1.4-1.3.1-2.7-.5-3.4-1.5-2.9-3.8 7-7.7 6-1.7 0 .4-.1.7-.2 1 0 .3-.2.5-.3.8z"/><path d="m17.4 1.9c.9-.6 2.1-.7 3-.3 1.4.5 2.6 1.9 2.8 3.4.8 5.5-12.1 4.1-7.4-1.5.3-.3.5-.6.8-.9.3-.2.5-.5.8-.6z"/><path d="m.7 5c0-1.3.5-2.6 1.6-3.3 1.5-1.1 3.8-1.2 5.5-.5 6.8 3.1-2.9 15.2-6.4 6.4-.2-.5-.4-1-.5-1.5-.1-.4-.3-.8-.2-1.3z"/><path d="m6.5 12c0 .4.3.7.7.7h4s.1 0 .1.1v4c0 .4.3.7.7.7s.7-.3.7-.7v-4s0-.1.1-.1h4c.4 0 .7-.3.7-.7s-.3-.7-.7-.7h-4s-.1 0-.1-.1v-4c0-.4-.3-.7-.7-.7s-.7.3-.7.7v4s0 .1-.1.1h-4c-.4 0-.7.3-.7.7z"/></svg>